<svg width="515" height="515" viewBox="0 0 515 515" fill="none" xmlns="http://www.w3.org/2000/svg">
<rect width="515" height="515" rx="257.5" fill="white"/>
<path d="M443.9 139.3C444.504 138.948 445.005 138.443 445.353 137.837C445.701 137.231 445.884 136.544 445.884 135.845C445.884 135.146 445.701 134.459 445.353 133.853C445.005 133.247 444.504 132.742 443.9 132.39L291.16 43.65C281.387 37.9852 270.291 35.0019 258.995 35.0019C247.699 35.0019 236.603 37.9852 226.83 43.65L74.12 132.39C73.5162 132.742 73.0152 133.247 72.6671 133.853C72.3189 134.459 72.1357 135.146 72.1357 135.845C72.1357 136.544 72.3189 137.231 72.6671 137.837C73.0152 138.443 73.5162 138.948 74.12 139.3L257 246.88C257.615 247.242 258.316 247.433 259.03 247.433C259.744 247.433 260.445 247.242 261.06 246.88L443.9 139.3Z" fill="#9747FF"/>
<path d="M57 166.51C56.39 166.158 55.6979 165.973 54.9935 165.974C54.2891 165.975 53.5976 166.162 52.9887 166.516C52.3799 166.871 51.8753 167.379 51.5261 167.991C51.1769 168.603 50.9954 169.296 51 170V343.89C51.0151 352.27 53.2237 360.5 57.4061 367.761C61.5886 375.022 67.5991 381.062 74.84 385.28L237 482.51C237.608 482.861 238.297 483.046 238.999 483.046C239.701 483.046 240.39 482.862 240.998 482.511C241.606 482.16 242.111 481.656 242.463 481.049C242.814 480.441 242.999 479.752 243 479.05V277.3C242.999 276.599 242.814 275.91 242.463 275.302C242.112 274.695 241.607 274.191 241 273.84L57 166.51Z" fill="#9747FF"/>
<path d="M275 278V479C275.001 479.702 275.186 480.391 275.537 480.999C275.889 481.606 276.394 482.11 277.002 482.461C277.61 482.812 278.299 482.996 279.001 482.996C279.703 482.996 280.392 482.811 281 482.46L443.15 385.23C450.385 381.018 456.393 374.986 460.577 367.734C464.761 360.482 466.975 352.262 467 343.89V170C466.998 169.299 466.811 168.611 466.459 168.005C466.107 167.399 465.602 166.896 464.994 166.546C464.386 166.197 463.697 166.013 462.996 166.014C462.296 166.015 461.607 166.2 461 166.55L277 274.55C276.394 274.9 275.89 275.403 275.539 276.008C275.188 276.613 275.002 277.3 275 278V278Z" fill="#9747FF"/>
</svg>
